<?xml version="1.0" encoding="utf-8"?>
<!-- Generator: Adobe Illustrator 23.0.2, SVG Export Plug-In . SVG Version: 6.00 Build 0)  -->
<svg version="1.1" id="Слой_1" xmlns="http://www.w3.org/2000/svg" xmlns:xlink="http://www.w3.org/1999/xlink" x="0px" y="0px"
	 viewBox="0 0 595.28 841.89" style="enable-background:new 0 0 595.28 841.89;" xml:space="preserve">
<style type="text/css">
	.st0{fill:#FFFFFF;stroke:#000000;stroke-width:12;stroke-miterlimit:10;}
	.st1{fill:none;stroke:#000000;stroke-width:7;stroke-miterlimit:10;}
	.st2{fill:#FFFFFF;stroke:#000000;stroke-width:5;stroke-miterlimit:10;}
	.st3{clip-path:url(#SVGID_2_);fill:#ED1E24;}
	.st4{clip-path:url(#SVGID_2_);fill:#FEC010;}
	.st5{clip-path:url(#SVGID_2_);fill:#F7EC13;}
	.st6{clip-path:url(#SVGID_2_);fill:#109A48;}
	.st7{clip-path:url(#SVGID_2_);fill:#2BADE4;}
	.st8{clip-path:url(#SVGID_2_);fill:#1871B9;}
	.st9{clip-path:url(#SVGID_2_);fill:#6F3996;}
	.st10{font-family:'DSVanish-Medium';}
	.st11{font-size:74.6631px;}
	.st12{clip-path:url(#SVGID_4_);fill:#ED1E24;}
	.st13{clip-path:url(#SVGID_4_);fill:#FEC010;}
	.st14{clip-path:url(#SVGID_4_);fill:#F7EC13;}
	.st15{clip-path:url(#SVGID_4_);fill:#109A48;}
	.st16{clip-path:url(#SVGID_4_);fill:#2BADE4;}
	.st17{clip-path:url(#SVGID_4_);fill:#1871B9;}
	.st18{clip-path:url(#SVGID_4_);fill:#6F3996;}
	.st19{clip-path:url(#SVGID_6_);fill:#ED1E24;}
	.st20{clip-path:url(#SVGID_6_);fill:#FEC010;}
	.st21{clip-path:url(#SVGID_6_);fill:#F7EC13;}
	.st22{clip-path:url(#SVGID_6_);fill:#109A48;}
	.st23{clip-path:url(#SVGID_6_);fill:#2BADE4;}
	.st24{clip-path:url(#SVGID_6_);fill:#1871B9;}
	.st25{clip-path:url(#SVGID_6_);fill:#6F3996;}
	.st26{clip-path:url(#SVGID_8_);fill:#ED1E24;}
	.st27{clip-path:url(#SVGID_8_);fill:#FEC010;}
	.st28{clip-path:url(#SVGID_8_);fill:#F7EC13;}
	.st29{clip-path:url(#SVGID_8_);fill:#109A48;}
	.st30{clip-path:url(#SVGID_8_);fill:#2BADE4;}
	.st31{clip-path:url(#SVGID_8_);fill:#1871B9;}
	.st32{clip-path:url(#SVGID_8_);fill:#6F3996;}
	.st33{clip-path:url(#SVGID_10_);fill:#ED1E24;}
	.st34{clip-path:url(#SVGID_10_);fill:#FEC010;}
	.st35{clip-path:url(#SVGID_10_);fill:#F7EC13;}
	.st36{clip-path:url(#SVGID_10_);fill:#109A48;}
	.st37{clip-path:url(#SVGID_10_);fill:#2BADE4;}
	.st38{clip-path:url(#SVGID_10_);fill:#1871B9;}
	.st39{clip-path:url(#SVGID_10_);fill:#6F3996;}
	.st40{fill:none;stroke:#000000;stroke-width:5;stroke-miterlimit:10;}
	.st41{clip-path:url(#SVGID_12_);fill:#ED1E24;}
	.st42{clip-path:url(#SVGID_12_);fill:#FEC010;}
	.st43{clip-path:url(#SVGID_12_);fill:#F7EC13;}
	.st44{clip-path:url(#SVGID_12_);fill:#109A48;}
	.st45{clip-path:url(#SVGID_12_);fill:#2BADE4;}
	.st46{clip-path:url(#SVGID_12_);fill:#1871B9;}
	.st47{clip-path:url(#SVGID_12_);fill:#6F3996;}
	.st48{display:none;}
	.st49{display:inline;}
	.st50{display:inline;clip-path:url(#SVGID_14_);}
	.st51{clip-path:url(#SVGID_16_);}
	.st52{clip-path:url(#SVGID_18_);}
	.st53{clip-path:url(#SVGID_20_);}
</style>
<rect x="142.66" y="73.47" class="st0" width="309.95" height="215.23"/>
<rect x="157.13" y="189.89" class="st1" width="281.01" height="81.14"/>
<rect x="-695.49" y="326.95" class="st2" width="595.28" height="94"/>
<g>
	<defs>
		<rect x="-824.19" y="489.41" width="284.19" height="60.65"/>
		<text id="SVGID_1_" transform="matrix(1.5078 0 0 1 -824.1885 549.0792)" class="st10" style="font-size:85.4908px;">ДЕЗІГНЕР</text>
	</defs>
	<clipPath id="SVGID_2_">
		<use xlink:href="#SVGID_1_"  style="overflow:visible;"/>
	</clipPath>
	<rect x="-820.61" y="489.41" class="st3" width="674.17" height="8.61"/>
	<rect x="-820.61" y="498.02" class="st4" width="674.17" height="8.61"/>
	<rect x="-820.61" y="506.63" class="st5" width="674.17" height="8.61"/>
	<rect x="-820.61" y="515.25" class="st6" width="674.17" height="8.61"/>
	<rect x="-820.61" y="523.86" class="st7" width="674.17" height="8.61"/>
	<rect x="-820.61" y="532.47" class="st8" width="674.17" height="8.61"/>
	<rect x="-820.61" y="541.09" class="st9" width="674.17" height="8.61"/>
</g>
<g>
	<defs>
		<rect x="160.22" y="203.98" width="274.84" height="52.96"/>
		<text id="SVGID_3_" transform="matrix(1.6696 0 0 1 160.2194 256.0942)" class="st10 st11">ДЕЗІГНЕР</text>
	</defs>
	<clipPath id="SVGID_4_">
		<use xlink:href="#SVGID_3_"  style="overflow:visible;"/>
	</clipPath>
	<rect x="163.68" y="203.98" class="st12" width="651.97" height="7.52"/>
	<rect x="163.68" y="211.5" class="st13" width="651.97" height="7.52"/>
	<rect x="163.68" y="219.02" class="st14" width="651.97" height="7.52"/>
	<rect x="163.68" y="226.55" class="st15" width="651.97" height="7.52"/>
	<rect x="163.68" y="234.07" class="st16" width="651.97" height="7.52"/>
	<rect x="163.68" y="241.59" class="st17" width="651.97" height="7.52"/>
	<rect x="163.68" y="249.11" class="st18" width="651.97" height="7.52"/>
</g>
<g>
	<defs>
		<rect x="-739.63" y="941.22" width="348.93" height="70.18"/>
		
			<text id="SVGID_5_" transform="matrix(0.976 0 0 1 -739.628 983.4445)" style="font-family:'Sodger-Regular'; font-size:74.9329px;">ДЕЗІГНЕР</text>
	</defs>
	<clipPath id="SVGID_6_">
		<use xlink:href="#SVGID_5_"  style="overflow:visible;"/>
	</clipPath>
	<rect x="-742.1" y="945.85" class="st19" width="375.21" height="7.41"/>
	<rect x="-742.1" y="953.26" class="st20" width="375.21" height="7.41"/>
	<rect x="-742.1" y="960.66" class="st21" width="375.21" height="7.41"/>
	<rect x="-742.1" y="968.07" class="st22" width="375.21" height="7.41"/>
	<rect x="-742.1" y="975.47" class="st23" width="375.21" height="7.41"/>
	<rect x="-742.1" y="982.88" class="st24" width="375.21" height="7.41"/>
	<rect x="-742.1" y="990.28" class="st25" width="375.21" height="7.41"/>
</g>
<g>
	<defs>
		<rect x="-744.69" y="788.52" width="282.42" height="72.2"/>
		<text id="SVGID_7_" transform="matrix(1 0 0 1 -744.6885 837.6886)" style="font-family:'NK73Fixed'; font-size:51.7612px;">ДЕЗІГНЕР</text>
	</defs>
	<clipPath id="SVGID_8_">
		<use xlink:href="#SVGID_7_"  style="overflow:visible;"/>
	</clipPath>
	<rect x="-747.61" y="788.41" class="st26" width="467.32" height="9"/>
	<rect x="-747.61" y="797.41" class="st27" width="467.32" height="9"/>
	<rect x="-747.61" y="806.41" class="st28" width="467.32" height="9"/>
	<rect x="-747.61" y="815.42" class="st29" width="467.32" height="9"/>
	<rect x="-747.61" y="824.42" class="st30" width="467.32" height="9"/>
	<rect x="-747.61" y="833.42" class="st31" width="467.32" height="9"/>
	<rect x="-747.61" y="842.42" class="st32" width="467.32" height="9"/>
</g>
<g>
	<defs>
		<rect x="-739.93" y="683.54" width="264.14" height="50.4"/>
		
			<text id="SVGID_9_" transform="matrix(0.9598 0 0 1 -739.9312 723.8439)" style="font-family:'FranklinGothic-Heavy'; font-size:60.4195px;">ДЕЗІГНЕР</text>
	</defs>
	<clipPath id="SVGID_10_">
		<use xlink:href="#SVGID_9_"  style="overflow:visible;"/>
	</clipPath>
	<rect x="-742.71" y="683.57" class="st33" width="287.02" height="5.76"/>
	<rect x="-742.71" y="689.33" class="st34" width="287.02" height="5.76"/>
	<rect x="-742.71" y="695.09" class="st35" width="287.02" height="5.76"/>
	<rect x="-742.71" y="700.85" class="st36" width="287.02" height="5.76"/>
	<rect x="-742.71" y="706.61" class="st37" width="287.02" height="5.76"/>
	<rect x="-742.71" y="712.37" class="st38" width="287.02" height="5.76"/>
	<rect x="-742.71" y="718.14" class="st39" width="287.02" height="5.76"/>
	<rect x="-742.71" y="723.9" class="st39" width="287.02" height="5.76"/>
	<rect x="-742.71" y="729.66" class="st39" width="287.02" height="5.76"/>
</g>
<rect x="-612.11" y="-53.83" class="st40" width="595.28" height="94"/>
<g>
	<defs>
		<path id="SVGID_11_" d="M-838.02,470.12v98.94h309.45v-98.94H-838.02z M-539.99,555.11H-826.6v-71.04h286.61V555.11z"/>
	</defs>
	<clipPath id="SVGID_12_">
		<use xlink:href="#SVGID_11_"  style="overflow:visible;"/>
	</clipPath>
	<rect x="-1021.33" y="470.12" class="st41" width="643.44" height="14.13"/>
	<rect x="-1021.33" y="484.26" class="st42" width="643.44" height="14.13"/>
	<rect x="-1021.33" y="498.39" class="st43" width="643.44" height="14.13"/>
	<rect x="-1021.33" y="512.53" class="st44" width="643.44" height="14.13"/>
	<rect x="-1021.33" y="526.66" class="st45" width="643.44" height="14.13"/>
	<rect x="-1021.33" y="540.8" class="st46" width="643.44" height="14.13"/>
	<rect x="-1021.33" y="554.93" class="st47" width="643.44" height="14.13"/>
</g>
<g class="st48">
	<defs>
		<path id="SVGID_13_" d="M100,188.55v86.41h299.26v-86.41H100z M388.21,262.77H111.04v-62.04h277.17V262.77z"/>
	</defs>
	<use xlink:href="#SVGID_13_"  style="display:inline;overflow:visible;"/>
	<clipPath id="SVGID_14_" class="st49">
		<use xlink:href="#SVGID_13_"  style="overflow:visible;"/>
	</clipPath>
	<rect x="-77.27" y="188.55" class="st50" width="622.26" height="12.34"/>
	<rect x="-77.27" y="200.89" class="st50" width="622.26" height="12.34"/>
	<rect x="-77.27" y="213.24" class="st50" width="622.26" height="12.34"/>
	<rect x="-77.27" y="225.58" class="st50" width="622.26" height="12.34"/>
	<rect x="-77.27" y="237.93" class="st50" width="622.26" height="12.34"/>
	<rect x="-77.27" y="250.27" class="st50" width="622.26" height="12.34"/>
	<rect x="-77.27" y="262.62" class="st50" width="622.26" height="12.34"/>
</g>
<g>
	<defs>
		<path id="SVGID_15_" d="M-755.58,775.9v88.1h299.26v-88.1H-755.58z M-467.36,851.58h-277.17v-63.25h277.17V851.58z"/>
	</defs>
	<use xlink:href="#SVGID_15_"  style="overflow:visible;"/>
	<clipPath id="SVGID_16_">
		<use xlink:href="#SVGID_15_"  style="overflow:visible;"/>
	</clipPath>
	<rect x="-932.85" y="775.9" class="st51" width="622.26" height="12.59"/>
	<rect x="-932.85" y="788.49" class="st51" width="622.26" height="12.59"/>
	<rect x="-932.85" y="801.08" class="st51" width="622.26" height="12.59"/>
	<rect x="-932.85" y="813.66" class="st51" width="622.26" height="12.59"/>
	<rect x="-932.85" y="826.25" class="st51" width="622.26" height="12.59"/>
	<rect x="-932.85" y="838.84" class="st51" width="622.26" height="12.59"/>
	<rect x="-932.85" y="851.42" class="st51" width="622.26" height="12.59"/>
</g>
<g>
	<defs>
		<path id="SVGID_17_" d="M-755.58,927.41v83.99h318.42v-83.99H-755.58z M-448.91,999.55h-294.92v-60.3h294.92V999.55z"/>
	</defs>
	<use xlink:href="#SVGID_17_"  style="overflow:visible;"/>
	<clipPath id="SVGID_18_">
		<use xlink:href="#SVGID_17_"  style="overflow:visible;"/>
	</clipPath>
	<rect x="-944.2" y="927.41" class="st52" width="662.1" height="12"/>
	<rect x="-944.2" y="939.41" class="st52" width="662.1" height="12"/>
	<rect x="-944.2" y="951.41" class="st52" width="662.1" height="12"/>
	<rect x="-944.2" y="963.4" class="st52" width="662.1" height="12"/>
	<rect x="-944.2" y="975.4" class="st52" width="662.1" height="12"/>
	<rect x="-944.2" y="987.4" class="st52" width="662.1" height="12"/>
	<rect x="-944.2" y="999.4" class="st52" width="662.1" height="12"/>
</g>
<g>
	<defs>
		<path id="SVGID_19_" d="M-755.58,672.38v72.72h295.43v-72.72H-755.58z M-471.05,734.85h-273.62v-52.21h273.62V734.85z"/>
	</defs>
	<use xlink:href="#SVGID_19_"  style="overflow:visible;"/>
	<clipPath id="SVGID_20_">
		<use xlink:href="#SVGID_19_"  style="overflow:visible;"/>
	</clipPath>
	<rect x="-930.58" y="672.38" class="st53" width="614.3" height="10.39"/>
	<rect x="-930.58" y="682.77" class="st53" width="614.3" height="10.39"/>
	<rect x="-930.58" y="693.16" class="st53" width="614.3" height="10.39"/>
	<rect x="-930.58" y="703.55" class="st53" width="614.3" height="10.39"/>
	<rect x="-930.58" y="713.94" class="st53" width="614.3" height="10.39"/>
	<rect x="-930.58" y="724.33" class="st53" width="614.3" height="10.39"/>
	<rect x="-930.58" y="734.72" class="st53" width="614.3" height="10.39"/>
</g>
<g>
	<polygon points="248.18,89.02 248.18,98.31 239.14,98.31 239.14,172.26 248.18,172.26 248.18,181.55 219.27,181.55 219.27,172.26 
		228.3,172.26 228.3,98.31 219.27,98.31 219.27,89.02 	"/>
	<path d="M376.01,155.12c-0.06,0.16-0.33,0.6-0.82,1.31l-3.53,4.84c-10.28,14.27-17.88,21.41-22.8,21.41
		c-2.57,0-4.68-0.96-6.31-2.87c-1.64-1.91-2.46-4.37-2.46-7.37c0-3.06,1.04-6.36,3.11-9.91c0.38-0.66,2.38-3.58,5.98-8.76
		c4.59-6.55,6.88-10.84,6.88-12.86c0-2.24-1.12-3.36-3.36-3.36c-7.21,0-19.58,14.8-37.1,44.39c-1.09-0.22-2.59-0.33-4.5-0.33
		c-2.24,0-4.15,0.11-5.73,0.33L317,163.51c7.59-12.12,11.39-19.55,11.39-22.28c0-2.46-1.01-3.69-3.03-3.69
		c-3,0-7.92,4.31-14.74,12.94c-6.83,8.63-13.6,19.11-20.31,31.45c-1.26-0.22-2.87-0.33-4.83-0.33c-2.13,0-3.99,0.11-5.57,0.33
		l11.71-18.43c8.08-12.67,12.12-20.5,12.12-23.51c0-1.64-0.63-2.46-1.89-2.46c-2.68,0-8.24,5.86-16.66,17.57
		c-0.55,0.76-0.99,1.15-1.31,1.15c-0.22-0.05-0.33-0.22-0.33-0.49c0-0.49,2.52-3.9,7.55-10.22c4.92-6.16,8.72-9.24,11.4-9.24
		c1.75,0,3.25,0.83,4.51,2.5c1.26,1.67,1.89,3.64,1.89,5.94c0,3.17-1.61,7.56-4.83,13.19c9.83-14.42,17.15-21.62,21.95-21.62
		c2.29,0,4.18,0.93,5.65,2.78c1.47,1.86,2.21,4.18,2.21,6.96c0,3.11-1.45,7.07-4.34,11.88c10.37-14.42,18.15-21.62,23.34-21.62
		c2.35,0,4.33,1.01,5.94,3.03c1.61,2.02,2.42,4.48,2.42,7.37c0,3.39-1.34,7.34-4.01,11.88c-0.06,0.06-2.4,3.55-7.04,10.48
		c-2.68,3.93-4.01,6.94-4.01,9.01c0,2.24,1.12,3.36,3.36,3.36c4.26,0,11.32-6.89,21.16-20.67l2.54-3.53l1.48-1.81
		c0.27-0.55,0.55-0.82,0.82-0.82C375.85,154.63,376.01,154.79,376.01,155.12z"/>
	<path d="M272.27,143.13c-2.83,5.26-8.13,12.02-11.46,14.91l-6.9,0.38c2.59-3.69,5.92-10.15,7.27-14.66L272.27,143.13z"/>
</g>
</svg>
