<?xml version="1.0" encoding="UTF-8" ?>
<!DOCTYPE svg PUBLIC "-//W3C//DTD SVG 1.1//EN" "http://www.w3.org/Graphics/SVG/1.1/DTD/svg11.dtd">
<svg width="1920pt" height="1080pt" viewBox="0 0 1920 1080" version="1.1" xmlns="http://www.w3.org/2000/svg">
<g id="#ffffffff">
</g>
<g id="#050505ff">
<path fill="#050505" opacity="1.00" d=" M 437.04 292.28 C 752.34 292.33 1067.65 292.33 1382.96 292.28 C 1383.34 342.85 1383.01 393.43 1383.12 444.00 C 1383.09 616.08 1383.19 788.16 1383.07 960.23 C 1169.38 960.41 955.69 960.26 742.00 960.31 C 640.31 960.26 538.61 960.41 436.92 960.23 C 436.80 760.82 436.90 561.41 436.87 362.00 C 436.98 338.76 436.64 315.51 437.04 292.28 M 472.72 328.05 C 472.51 503.36 472.69 678.68 472.63 854.00 C 472.79 877.54 472.31 901.09 472.86 924.63 C 552.91 924.49 632.96 924.61 713.00 924.57 C 924.38 924.61 1135.76 924.49 1347.13 924.63 C 1347.65 914.09 1347.23 903.54 1347.36 893.00 C 1347.31 704.68 1347.48 516.36 1347.28 328.05 C 1055.76 328.02 764.24 328.02 472.72 328.05 Z" />
<path fill="#050505" opacity="1.00" d=" M 679.66 355.73 C 708.10 355.53 736.54 355.58 764.98 355.70 C 765.02 364.90 765.02 374.11 764.98 383.31 C 756.11 383.49 747.24 383.36 738.38 383.38 C 738.39 455.55 738.47 527.72 738.34 599.89 C 747.21 600.14 756.10 599.92 764.98 600.02 C 765.01 609.34 765.01 618.66 764.98 627.98 C 736.54 628.01 708.09 628.01 679.64 627.99 C 679.48 618.66 679.48 609.34 679.64 600.02 C 688.42 599.95 697.20 600.04 705.98 599.99 C 705.95 527.77 706.13 455.55 705.89 383.33 C 697.15 383.40 688.41 383.50 679.67 383.29 C 679.46 374.11 679.47 364.91 679.66 355.73 Z" />
<path fill="#050505" opacity="1.00" d=" M 911.84 499.83 C 916.92 495.77 923.97 492.92 930.31 495.81 C 938.50 499.81 942.97 509.16 943.26 517.99 C 943.73 529.45 938.19 539.80 933.99 550.10 C 940.45 541.84 946.34 533.13 953.17 525.15 C 961.84 514.89 970.95 504.51 982.72 497.72 C 989.42 493.65 998.47 493.50 1004.98 498.02 C 1012.37 503.13 1016.25 512.15 1016.63 520.94 C 1017.43 532.01 1012.27 542.13 1008.02 551.98 C 1019.29 536.81 1031.08 521.87 1045.06 509.07 C 1050.65 504.13 1056.62 499.42 1063.54 496.49 C 1070.04 493.68 1078.04 493.96 1083.96 498.04 C 1092.06 503.56 1096.58 513.31 1096.96 522.96 C 1097.50 538.26 1090.39 552.64 1082.09 565.05 C 1075.02 575.65 1067.79 586.14 1060.87 596.83 C 1056.73 603.85 1052.07 611.51 1053.03 620.01 C 1053.21 623.67 1056.53 626.67 1060.11 626.94 C 1064.30 627.53 1068.47 626.15 1072.06 624.05 C 1080.10 619.40 1086.63 612.66 1093.01 606.01 C 1107.08 590.82 1119.04 573.87 1131.14 557.11 C 1133.90 553.80 1135.97 549.51 1140.20 547.82 C 1140.07 551.86 1137.31 554.94 1135.11 558.07 C 1120.59 577.98 1106.22 598.24 1088.38 615.37 C 1082.55 620.70 1076.42 625.93 1069.16 629.20 C 1060.93 633.02 1050.50 631.27 1043.94 625.03 C 1038.35 619.90 1035.21 612.49 1034.65 604.99 C 1033.50 592.97 1037.90 581.17 1044.07 571.05 C 1053.22 557.24 1063.03 543.85 1071.87 529.83 C 1075.57 523.53 1079.69 517.19 1081.19 509.94 C 1081.99 505.76 1080.42 500.33 1075.82 499.21 C 1067.41 497.10 1059.45 502.16 1052.98 506.94 C 1040.52 516.79 1030.24 529.07 1020.52 541.55 C 999.28 569.29 980.84 599.04 962.93 629.01 C 952.85 627.62 942.64 628.10 932.54 628.96 C 944.54 608.97 957.42 589.51 969.66 569.67 C 979.06 554.46 988.39 539.12 995.90 522.86 C 998.54 516.74 1001.69 509.71 998.97 503.08 C 997.62 499.56 993.47 498.17 990.00 498.80 C 984.74 499.68 980.37 503.04 976.32 506.28 C 967.75 513.38 960.41 521.82 953.33 530.37 C 928.57 560.97 907.35 594.30 888.72 628.94 C 878.41 627.76 868.00 627.99 857.69 628.96 C 870.82 607.46 884.70 586.42 898.06 565.06 C 907.30 550.05 916.61 534.98 923.82 518.86 C 925.93 513.61 928.60 507.90 927.17 502.14 C 926.64 499.42 923.57 498.14 921.08 498.85 C 916.94 499.89 913.63 502.79 910.48 505.51 C 895.25 519.63 883.70 537.04 871.01 553.33 C 870.25 553.17 868.71 552.86 867.94 552.71 C 870.90 546.71 875.32 541.63 879.28 536.30 C 889.36 523.51 898.85 509.90 911.84 499.83 Z" />
<path fill="#050505" opacity="1.00" d=" M 808.96 515.96 C 817.80 515.82 826.60 514.64 835.45 514.80 C 828.72 528.00 819.51 539.74 809.87 550.92 C 807.30 553.64 804.90 556.65 801.73 558.70 C 794.90 559.54 787.97 559.44 781.11 560.01 C 788.07 549.26 794.31 538.01 799.13 526.14 C 800.38 523.06 801.21 519.79 802.83 516.88 C 804.70 515.94 806.91 516.14 808.96 515.96 Z" />
<path fill="#050505" opacity="1.00" d=" M 486.80 641.74 C 755.20 641.53 1023.60 641.71 1292.00 641.65 C 1305.73 641.71 1319.46 641.53 1333.19 641.75 C 1333.33 728.16 1333.30 814.57 1333.20 900.98 C 1123.80 901.17 914.40 901.03 705.00 901.07 C 632.26 901.04 559.53 901.13 486.79 901.02 C 486.69 814.60 486.66 728.17 486.80 641.74 M 508.03 662.77 C 507.97 735.18 508.00 807.58 508.01 879.98 C 776.00 880.01 1044.00 880.01 1311.99 879.98 C 1312.00 807.58 1312.02 735.18 1311.97 662.78 C 1308.64 662.71 1305.32 662.69 1302.01 662.70 C 1037.35 662.77 772.68 662.61 508.03 662.77 Z" />
</g>
<g id="#ed1d24ff">
<path fill="#ed1d24" opacity="1.00" d=" M 525.49 697.34 C 526.04 694.35 529.23 693.15 531.96 693.32 C 556.99 693.30 582.03 693.37 607.06 693.28 C 610.02 693.12 613.86 693.91 614.54 697.33 C 615.56 703.22 614.85 709.25 614.95 715.20 C 584.98 715.42 555.01 715.43 525.05 715.20 C 525.15 709.25 524.43 703.23 525.49 697.34 Z" />
<path fill="#ed1d24" opacity="1.00" d=" M 639.39 697.30 C 639.96 694.28 643.23 693.15 645.97 693.31 C 671.00 693.31 696.03 693.36 721.06 693.29 C 723.97 693.14 727.88 693.92 728.41 697.37 C 729.19 703.27 728.55 709.26 728.72 715.20 C 698.83 715.43 668.94 715.43 639.05 715.20 C 639.15 709.24 638.47 703.21 639.39 697.30 Z" />
<path fill="#ed1d24" opacity="1.00" d=" M 743.03 697.13 C 743.42 694.28 746.41 693.14 748.95 693.31 C 774.65 693.33 800.35 693.32 826.04 693.31 C 828.58 693.14 831.58 694.27 831.98 697.13 C 832.89 703.10 832.22 709.19 832.28 715.21 C 802.43 715.42 772.58 715.42 742.74 715.21 C 742.80 709.19 742.12 703.11 743.03 697.13 Z" />
<path fill="#ed1d24" opacity="1.00" d=" M 852.08 694.08 C 856.62 692.87 861.36 693.39 866.00 693.31 C 870.94 693.44 875.90 693.00 880.83 693.50 C 883.68 693.65 885.97 696.20 886.13 699.01 C 886.74 704.39 886.34 709.81 886.30 715.22 C 872.99 715.38 859.67 715.48 846.36 715.16 C 846.39 709.84 845.90 704.50 846.50 699.21 C 846.83 696.40 849.63 694.81 852.08 694.08 Z" />
<path fill="#ed1d24" opacity="1.00" d=" M 904.42 693.62 C 908.24 692.98 912.14 693.36 916.00 693.31 C 938.34 693.34 960.69 693.31 983.03 693.31 C 985.74 693.23 989.15 694.12 989.80 697.19 C 990.76 703.13 990.07 709.20 990.14 715.21 C 963.09 715.51 936.03 715.25 908.98 715.33 C 906.14 715.39 903.31 715.56 900.48 715.75 C 900.45 710.19 900.16 704.61 900.48 699.06 C 900.46 696.66 901.95 694.12 904.42 693.62 Z" />
<path fill="#ed1d24" opacity="1.00" d=" M 1004.27 699.12 C 1004.54 696.15 1006.85 693.26 1010.04 693.39 C 1019.03 693.19 1028.04 693.33 1037.05 693.33 C 1040.54 693.07 1044.27 695.48 1044.47 699.19 C 1044.96 704.70 1044.59 710.24 1044.55 715.77 C 1031.07 714.77 1017.55 715.71 1004.05 715.20 C 1004.07 709.84 1003.62 704.45 1004.27 699.12 Z" />
<path fill="#ed1d24" opacity="1.00" d=" M 1053.60 698.40 C 1054.20 695.02 1057.73 693.14 1060.96 693.33 C 1069.65 693.29 1078.35 693.28 1087.05 693.33 C 1090.16 693.05 1093.02 695.26 1093.52 698.35 C 1094.52 703.90 1093.88 709.59 1093.94 715.20 C 1080.42 715.39 1066.89 715.49 1053.37 715.15 C 1053.42 709.57 1052.85 703.94 1053.60 698.40 Z" />
<path fill="#ed1d24" opacity="1.00" d=" M 1108.12 697.17 C 1108.59 693.93 1112.27 693.27 1114.98 693.31 C 1139.99 693.33 1165.01 693.33 1190.02 693.31 C 1192.75 693.26 1196.45 693.90 1197.01 697.16 C 1197.95 703.12 1197.26 709.20 1197.32 715.21 C 1167.48 715.41 1137.63 715.43 1107.79 715.21 C 1107.84 709.20 1107.16 703.13 1108.12 697.17 Z" />
<path fill="#ed1d24" opacity="1.00" d=" M 1211.32 693.31 C 1238.89 693.33 1266.46 693.32 1294.03 693.32 C 1296.74 693.19 1300.09 694.23 1300.65 697.29 C 1301.54 703.21 1300.90 709.23 1300.97 715.20 C 1271.11 715.39 1241.24 715.50 1211.39 715.14 C 1211.29 707.86 1211.35 700.59 1211.32 693.31 Z" />
</g>
<g id="#fec00fff">
<path fill="#fec00f" opacity="1.00" d=" M 525.05 715.20 C 555.01 715.43 584.98 715.42 614.95 715.20 C 615.05 722.75 615.06 730.30 614.94 737.86 C 584.98 737.63 555.02 737.63 525.06 737.86 C 524.95 730.30 524.95 722.75 525.05 715.20 Z" />
<path fill="#fec00f" opacity="1.00" d=" M 639.05 715.20 C 668.94 715.43 698.83 715.43 728.72 715.20 C 728.72 730.06 728.68 744.92 728.70 759.78 C 698.74 759.37 668.77 759.99 638.82 759.47 L 639.37 759.48 C 668.91 758.95 698.52 759.79 728.07 759.08 C 728.56 752.05 728.58 744.99 728.03 737.97 C 713.03 737.35 698.01 737.91 683.00 737.72 C 668.35 737.79 653.71 737.57 639.06 737.86 C 638.94 730.30 638.95 722.75 639.05 715.20 Z" />
<path fill="#fec00f" opacity="1.00" d=" M 742.74 715.21 C 772.58 715.42 802.43 715.42 832.28 715.21 C 832.40 722.76 832.44 730.31 832.24 737.85 C 802.42 737.64 772.59 737.63 742.76 737.85 C 742.56 730.31 742.59 722.76 742.74 715.21 Z" />
<path fill="#fec00f" opacity="1.00" d=" M 846.36 715.16 C 859.67 715.48 872.99 715.38 886.30 715.22 C 886.43 722.76 886.47 730.31 886.27 737.85 C 873.05 737.64 859.82 737.64 846.60 737.86 C 846.35 730.29 846.59 722.72 846.36 715.16 Z" />
<path fill="#fec00f" opacity="1.00" d=" M 900.48 715.75 C 903.31 715.56 906.14 715.39 908.98 715.33 C 936.03 715.25 963.09 715.51 990.14 715.21 C 990.30 722.75 990.32 730.30 990.13 737.85 C 960.32 737.64 930.50 737.63 900.69 737.86 C 900.45 730.49 900.64 723.12 900.48 715.75 Z" />
<path fill="#fec00f" opacity="1.00" d=" M 1004.05 715.20 C 1017.55 715.71 1031.07 714.77 1044.55 715.77 C 1044.40 723.13 1044.59 730.49 1044.35 737.86 C 1030.92 737.64 1017.49 737.63 1004.07 737.86 C 1003.94 730.30 1003.94 722.75 1004.05 715.20 Z" />
<path fill="#fec00f" opacity="1.00" d=" M 1053.37 715.15 C 1066.89 715.49 1080.42 715.39 1093.94 715.20 C 1094.05 722.75 1094.06 730.30 1093.93 737.85 C 1080.49 737.63 1067.05 737.65 1053.61 737.85 C 1053.37 730.29 1053.60 722.72 1053.37 715.15 Z" />
<path fill="#fec00f" opacity="1.00" d=" M 1107.79 715.21 C 1137.63 715.43 1167.48 715.41 1197.32 715.21 C 1197.43 722.76 1197.48 730.31 1197.28 737.85 C 1167.46 737.64 1137.62 737.63 1107.80 737.85 C 1107.60 730.30 1107.62 722.75 1107.79 715.21 Z" />
<path fill="#fec00f" opacity="1.00" d=" M 1211.39 715.14 C 1241.24 715.50 1271.11 715.39 1300.97 715.20 C 1301.10 722.75 1301.10 730.30 1300.96 737.86 C 1271.18 737.63 1241.41 737.64 1211.64 737.86 C 1211.39 730.28 1211.63 722.71 1211.39 715.14 Z" />
</g>
<g id="#f3ec17ff">
<path fill="#f3ec17" opacity="1.00" d=" M 525.06 737.86 C 555.02 737.63 584.98 737.63 614.94 737.86 C 615.06 745.16 615.05 752.47 614.94 759.78 C 584.98 759.58 555.02 759.58 525.06 759.78 C 524.95 752.47 524.93 745.16 525.06 737.86 Z" />
<path fill="#f3ec17" opacity="1.00" d=" M 639.06 737.86 C 653.71 737.57 668.35 737.79 683.00 737.72 C 698.01 737.91 713.03 737.35 728.03 737.97 C 728.58 744.99 728.56 752.05 728.07 759.08 C 698.52 759.79 668.91 758.95 639.37 759.48 C 638.68 752.29 639.01 745.07 639.06 737.86 Z" />
<path fill="#f3ec17" opacity="1.00" d=" M 742.76 737.85 C 772.59 737.63 802.42 737.64 832.24 737.85 C 832.43 745.16 832.42 752.47 832.26 759.78 C 802.43 759.58 772.58 759.58 742.75 759.77 C 742.58 752.46 742.57 745.16 742.76 737.85 Z" />
<path fill="#f3ec17" opacity="1.00" d=" M 846.60 737.86 C 859.82 737.64 873.05 737.64 886.27 737.85 C 886.44 745.00 886.49 752.15 886.23 759.30 C 873.04 759.52 859.84 759.49 846.65 759.31 C 846.37 752.16 846.44 745.00 846.60 737.86 Z" />
<path fill="#f3ec17" opacity="1.00" d=" M 900.69 737.86 C 930.50 737.63 960.32 737.64 990.13 737.85 C 990.31 745.00 990.34 752.15 990.10 759.30 C 960.32 759.52 930.52 759.49 900.73 759.32 C 900.46 752.16 900.52 745.01 900.69 737.86 Z" />
<path fill="#f3ec17" opacity="1.00" d=" M 1004.07 737.86 C 1017.49 737.63 1030.92 737.64 1044.35 737.86 C 1044.52 745.01 1044.58 752.16 1044.30 759.32 C 1030.89 759.49 1017.47 759.53 1004.05 759.29 C 1003.94 752.15 1003.93 745.00 1004.07 737.86 Z" />
<path fill="#f3ec17" opacity="1.00" d=" M 1053.61 737.85 C 1067.05 737.65 1080.49 737.63 1093.93 737.85 C 1094.06 745.00 1094.05 752.14 1093.94 759.29 C 1080.52 759.53 1067.09 759.49 1053.66 759.31 C 1053.38 752.16 1053.45 745.00 1053.61 737.85 Z" />
<path fill="#f3ec17" opacity="1.00" d=" M 1107.80 737.85 C 1137.62 737.63 1167.46 737.64 1197.28 737.85 C 1197.46 745.16 1197.45 752.46 1197.30 759.77 C 1167.47 759.59 1137.63 759.57 1107.79 759.78 C 1107.59 752.47 1107.60 745.16 1107.80 737.85 Z" />
<path fill="#f3ec17" opacity="1.00" d=" M 1211.64 737.86 C 1241.41 737.64 1271.18 737.63 1300.96 737.86 C 1301.11 745.00 1301.10 752.14 1300.97 759.29 C 1271.21 759.53 1241.45 759.49 1211.69 759.31 C 1211.40 752.16 1211.47 745.00 1211.64 737.86 Z" />
</g>
<g id="#129b48ff">
<path fill="#129b48" opacity="1.00" d=" M 525.06 759.78 C 555.02 759.58 584.98 759.58 614.94 759.78 C 615.05 767.12 615.05 774.47 614.94 781.82 C 584.98 781.57 555.02 781.58 525.06 781.82 C 524.95 774.47 524.95 767.12 525.06 759.78 Z" />
<path fill="#129b48" opacity="1.00" d=" M 638.82 759.47 C 668.77 759.99 698.74 759.37 728.70 759.78 C 728.75 767.13 728.74 774.49 728.70 781.84 C 698.83 781.54 668.94 781.60 639.06 781.82 C 638.88 774.37 639.15 766.91 638.82 759.47 Z" />
<path fill="#129b48" opacity="1.00" d=" M 742.75 759.77 C 772.58 759.58 802.43 759.58 832.26 759.78 C 832.43 767.12 832.43 774.47 832.27 781.82 C 802.43 781.58 772.59 781.58 742.75 781.82 C 742.57 774.47 742.58 767.12 742.75 759.77 Z" />
<path fill="#129b48" opacity="1.00" d=" M 846.26 759.81 C 859.59 759.40 872.94 759.59 886.27 759.71 C 886.49 767.08 886.47 774.45 886.30 781.83 C 872.97 781.59 859.63 781.55 846.31 781.85 C 846.26 774.50 846.30 767.15 846.26 759.81 Z" />
<path fill="#129b48" opacity="1.00" d=" M 900.34 759.88 C 930.25 759.31 960.20 759.64 990.12 759.71 C 990.29 767.08 990.28 774.45 990.13 781.82 C 960.43 781.54 930.72 781.65 901.02 781.76 L 900.21 781.78 C 900.57 774.48 900.39 767.17 900.34 759.88 Z" />
<path fill="#129b48" opacity="1.00" d=" M 1004.03 759.71 C 1017.58 759.62 1031.15 759.32 1044.69 759.86 C 1044.61 767.19 1044.65 774.51 1044.64 781.84 C 1031.12 781.56 1017.58 781.59 1004.06 781.82 C 1003.94 774.45 1003.97 767.08 1004.03 759.71 Z" />
<path fill="#129b48" opacity="1.00" d=" M 1053.27 759.82 C 1066.83 759.38 1080.41 759.60 1093.97 759.70 C 1094.02 767.07 1094.06 774.45 1093.94 781.83 C 1080.40 781.59 1066.86 781.56 1053.32 781.84 C 1053.28 774.50 1053.32 767.16 1053.27 759.82 Z" />
<path fill="#129b48" opacity="1.00" d=" M 1107.79 759.78 C 1137.63 759.57 1167.47 759.59 1197.30 759.77 C 1197.48 767.12 1197.49 774.47 1197.30 781.83 C 1167.47 781.57 1137.62 781.58 1107.79 781.82 C 1107.63 774.47 1107.64 767.12 1107.79 759.78 Z" />
<path fill="#129b48" opacity="1.00" d=" M 1211.29 759.85 C 1241.18 759.34 1271.09 759.62 1300.99 759.71 C 1301.07 767.08 1301.10 774.45 1300.96 781.82 C 1271.30 781.55 1241.63 781.63 1211.98 781.78 L 1211.15 781.80 C 1211.49 774.48 1211.31 767.16 1211.29 759.85 Z" />
</g>
<g id="#28ade4ff">
<path fill="#28ade4" opacity="1.00" d=" M 525.06 781.82 C 555.02 781.58 584.98 781.57 614.94 781.82 C 615.06 789.19 615.04 796.56 614.96 803.94 C 584.99 803.87 555.01 803.87 525.04 803.93 C 524.95 796.56 524.94 789.19 525.06 781.82 Z" />
<path fill="#28ade4" opacity="1.00" d=" M 639.06 781.82 C 668.94 781.60 698.83 781.54 728.70 781.84 C 728.58 787.83 729.04 793.84 728.55 799.82 C 728.34 801.71 727.25 804.08 725.26 804.51 C 710.88 803.23 696.42 804.17 682.00 803.90 C 667.68 803.92 653.36 803.84 639.04 803.94 C 638.95 796.56 638.94 789.19 639.06 781.82 Z" />
<path fill="#28ade4" opacity="1.00" d=" M 742.75 781.82 C 772.59 781.58 802.43 781.58 832.27 781.82 C 832.41 789.19 832.42 796.57 832.26 803.94 C 815.18 803.83 798.09 803.93 781.00 803.89 C 769.51 804.15 757.98 803.25 746.53 804.56 C 744.27 804.46 743.07 801.95 742.89 799.98 C 742.24 793.95 742.75 787.87 742.75 781.82 Z" />
<path fill="#28ade4" opacity="1.00" d=" M 846.31 781.85 C 859.63 781.55 872.97 781.59 886.30 781.83 C 886.17 787.15 887.75 793.43 883.83 797.81 C 881.75 800.10 879.80 802.90 876.91 804.16 C 869.71 803.89 862.51 803.95 855.31 803.78 C 851.80 801.76 849.02 798.50 847.09 794.98 C 845.58 790.79 846.41 786.20 846.31 781.85 Z" />
<path fill="#28ade4" opacity="1.00" d=" M 901.02 781.76 C 930.72 781.65 960.43 781.54 990.13 781.82 C 990.17 787.86 990.66 793.94 989.99 799.97 C 989.77 801.90 988.59 804.36 986.41 804.53 C 975.64 803.32 964.80 804.10 954.00 803.89 C 936.22 803.92 918.43 803.85 900.65 803.93 C 900.64 796.54 900.17 789.12 901.02 781.76 Z" />
<path fill="#28ade4" opacity="1.00" d=" M 1004.06 781.82 C 1017.58 781.59 1031.12 781.56 1044.64 781.84 C 1044.31 787.32 1046.39 794.43 1041.39 798.38 C 1037.50 801.15 1033.06 803.63 1028.30 804.29 C 1020.22 803.81 1012.13 803.76 1004.04 803.96 C 1003.95 796.58 1003.94 789.20 1004.06 781.82 Z" />
<path fill="#28ade4" opacity="1.00" d=" M 1053.32 781.84 C 1066.86 781.56 1080.40 781.59 1093.94 781.83 C 1094.06 789.20 1094.04 796.58 1093.96 803.96 C 1085.94 803.72 1077.93 803.94 1069.92 804.18 C 1065.08 803.57 1060.51 801.22 1056.59 798.41 C 1051.53 794.47 1053.67 787.32 1053.32 781.84 Z" />
<path fill="#28ade4" opacity="1.00" d=" M 1107.79 781.82 C 1137.62 781.58 1167.47 781.57 1197.30 781.83 C 1197.28 787.87 1197.76 793.94 1197.19 799.97 C 1197.03 801.98 1195.71 804.51 1193.47 804.57 C 1183.68 803.35 1173.82 804.05 1164.00 803.90 C 1145.26 803.92 1126.52 803.84 1107.79 803.94 C 1107.61 796.56 1107.61 789.19 1107.79 781.82 Z" />
<path fill="#28ade4" opacity="1.00" d=" M 1211.98 781.78 C 1241.63 781.63 1271.30 781.55 1300.96 781.82 C 1301.10 789.19 1301.10 796.56 1300.97 803.94 C 1271.18 803.86 1241.39 803.88 1211.59 803.93 C 1211.60 796.54 1211.10 789.13 1211.98 781.78 Z" />
</g>
<g id="#0e72b9ff">
<path fill="#0e72b9" opacity="1.00" d=" M 525.04 803.93 C 555.01 803.87 584.99 803.87 614.96 803.94 C 615.04 811.27 615.06 818.61 614.93 825.96 C 608.74 825.89 602.56 825.88 596.37 825.97 C 596.45 819.24 596.42 812.51 596.24 805.79 C 578.59 805.66 560.93 805.45 543.29 805.90 C 543.31 812.58 543.29 819.27 543.28 825.96 C 537.21 825.88 531.15 825.89 525.10 825.95 C 524.91 818.61 524.97 811.27 525.04 803.93 Z" />
<path fill="#0e72b9" opacity="1.00" d=" M 639.04 803.94 C 653.36 803.84 667.68 803.92 682.00 803.90 C 696.42 804.17 710.88 803.23 725.26 804.51 C 719.37 806.51 713.08 805.48 707.00 805.67 C 690.38 805.79 673.77 805.45 657.16 805.83 C 657.13 808.19 657.12 810.55 657.13 812.92 C 676.08 813.10 695.04 812.98 713.99 812.97 C 717.86 813.08 721.96 812.73 725.58 814.37 C 730.47 816.52 729.71 825.32 724.26 826.19 C 695.87 825.58 667.45 826.02 639.05 825.95 C 638.95 818.61 638.96 811.27 639.04 803.94 Z" />
<path fill="#0e72b9" opacity="1.00" d=" M 746.53 804.56 C 757.98 803.25 769.51 804.15 781.00 803.89 C 798.09 803.93 815.18 803.83 832.26 803.94 C 832.42 811.27 832.43 818.61 832.27 825.95 C 803.77 826.01 775.26 825.61 746.76 826.17 C 741.93 824.75 741.24 816.98 745.60 814.57 C 748.43 812.96 751.82 813.11 754.97 812.98 C 774.72 812.98 794.46 813.06 814.21 812.96 C 814.24 810.56 814.25 808.17 814.24 805.79 C 797.16 805.51 780.08 805.76 763.00 805.67 C 757.50 805.54 751.83 806.42 746.53 804.56 Z" />
<path fill="#0e72b9" opacity="1.00" d=" M 855.31 803.78 C 862.51 803.95 869.71 803.89 876.91 804.16 C 874.16 811.12 875.85 818.69 875.29 825.95 C 869.20 825.89 863.11 825.89 857.03 825.95 C 856.60 818.56 858.10 810.86 855.31 803.78 Z" />
<path fill="#0e72b9" opacity="1.00" d=" M 900.65 803.93 C 918.43 803.85 936.22 803.92 954.00 803.89 C 964.80 804.10 975.64 803.32 986.41 804.53 C 981.14 806.45 975.47 805.53 970.00 805.67 C 952.92 805.75 935.83 805.53 918.76 805.78 C 918.50 812.50 918.66 819.23 918.64 825.96 C 912.64 825.89 906.64 825.89 900.65 825.95 C 900.48 818.61 900.47 811.27 900.65 803.93 Z" />
<path fill="#0e72b9" opacity="1.00" d=" M 1004.04 803.96 C 1012.13 803.76 1020.22 803.81 1028.30 804.29 C 1026.34 805.67 1024.36 806.99 1022.38 808.32 C 1022.27 809.82 1022.17 811.33 1022.10 812.85 C 1039.87 813.15 1057.66 812.99 1075.44 812.94 C 1075.31 811.35 1075.23 809.77 1075.00 808.21 C 1073.57 806.55 1071.64 805.46 1069.92 804.18 C 1077.93 803.94 1085.94 803.72 1093.96 803.96 C 1094.04 811.29 1094.05 818.62 1093.94 825.95 C 1063.98 825.88 1034.02 825.88 1004.05 825.95 C 1003.95 818.62 1003.96 811.29 1004.04 803.96 Z" />
<path fill="#0e72b9" opacity="1.00" d=" M 1107.79 803.94 C 1126.52 803.84 1145.26 803.92 1164.00 803.90 C 1173.82 804.05 1183.68 803.35 1193.47 804.57 C 1188.16 806.42 1182.49 805.53 1177.00 805.67 C 1160.01 805.77 1143.01 805.50 1126.02 805.80 C 1125.98 808.18 1125.98 810.57 1126.00 812.97 C 1145.67 813.05 1165.35 812.98 1185.03 812.98 C 1188.20 813.10 1191.59 812.97 1194.50 814.46 C 1198.92 816.87 1198.26 824.90 1193.23 826.18 C 1164.76 825.59 1136.27 826.01 1107.79 825.95 C 1107.62 818.61 1107.63 811.27 1107.79 803.94 Z" />
<path fill="#0e72b9" opacity="1.00" d=" M 1211.59 803.93 C 1241.39 803.88 1271.18 803.86 1300.97 803.94 C 1300.97 809.62 1301.35 815.33 1300.88 821.01 C 1300.83 823.28 1299.37 825.47 1297.16 826.14 C 1268.75 825.70 1240.33 825.88 1211.93 826.02 C 1211.06 818.69 1211.52 811.29 1211.59 803.93 M 1229.64 805.80 C 1229.59 808.18 1229.60 810.56 1229.65 812.96 C 1247.22 813.03 1264.79 813.03 1282.36 812.96 C 1282.41 810.55 1282.43 808.15 1282.43 805.76 C 1264.83 805.64 1247.23 805.57 1229.64 805.80 Z" />
</g>
<g id="#6f3996ff">
<path fill="#6f3996" opacity="1.00" d=" M 525.10 825.95 C 531.15 825.89 537.21 825.88 543.28 825.96 C 543.27 828.80 543.26 831.66 543.23 834.51 C 560.90 834.22 578.57 834.68 596.23 834.26 C 596.29 831.49 596.33 828.73 596.37 825.97 C 602.56 825.88 608.74 825.89 614.93 825.96 C 614.98 828.94 615.00 831.93 615.06 834.93 C 618.49 834.96 622.11 834.29 625.39 835.63 C 629.99 837.65 630.06 845.35 625.41 847.35 C 622.73 848.36 619.79 848.18 616.98 848.29 C 592.65 848.25 568.33 848.28 544.00 848.27 C 534.76 848.15 525.50 848.59 516.27 847.94 C 516.24 843.62 516.24 839.30 516.30 834.99 C 519.12 834.78 521.96 834.65 524.80 834.55 C 524.93 831.68 525.00 828.81 525.10 825.95 Z" />
<path fill="#6f3996" opacity="1.00" d=" M 639.05 825.95 C 667.45 826.02 695.87 825.58 724.26 826.19 C 718.94 827.56 713.42 826.96 708.00 827.04 C 691.02 827.07 674.05 826.96 657.08 827.08 C 657.11 829.62 657.15 832.16 657.18 834.71 C 677.44 834.43 697.72 834.66 717.99 834.58 C 721.84 834.58 727.34 834.82 728.51 839.40 C 730.01 843.67 726.63 848.39 722.05 848.08 C 699.38 848.57 676.68 848.09 654.00 848.31 C 650.43 848.27 646.80 848.52 643.31 847.69 C 641.09 847.16 639.38 845.16 639.23 842.90 C 638.62 837.27 639.08 831.59 639.05 825.95 Z" />
<path fill="#6f3996" opacity="1.00" d=" M 746.76 826.17 C 775.26 825.61 803.77 826.01 832.27 825.95 C 832.22 831.91 832.91 837.94 831.94 843.86 C 831.13 847.88 826.34 848.24 823.02 848.27 C 799.68 848.28 776.34 848.26 753.01 848.28 C 749.99 848.04 746.26 848.51 744.06 845.98 C 740.86 841.94 743.30 834.59 748.98 834.83 C 770.58 834.32 792.23 834.59 813.85 834.72 C 813.86 832.17 813.90 829.62 813.94 827.08 C 797.29 826.96 780.64 827.07 764.00 827.04 C 758.25 826.92 752.40 827.62 746.76 826.17 Z" />
<path fill="#6f3996" opacity="1.00" d=" M 857.03 825.95 C 863.11 825.89 869.20 825.89 875.29 825.95 C 875.24 831.91 875.92 837.95 874.98 843.87 C 874.15 847.89 869.35 848.41 865.99 848.27 C 862.73 848.30 858.17 847.61 857.32 843.84 C 856.46 837.92 857.08 831.90 857.03 825.95 Z" />
<path fill="#6f3996" opacity="1.00" d=" M 900.65 825.95 C 906.64 825.89 912.64 825.89 918.64 825.96 C 918.52 831.57 918.97 837.21 918.47 842.81 C 918.38 845.70 915.74 847.79 913.00 848.02 C 909.68 848.35 906.01 848.63 902.99 846.97 C 900.92 845.76 900.68 843.16 900.57 841.03 C 900.35 836.00 900.59 830.97 900.65 825.95 Z" />
<path fill="#6f3996" opacity="1.00" d=" M 1004.05 825.95 C 1034.02 825.88 1063.98 825.88 1093.94 825.95 C 1093.86 831.84 1094.57 837.82 1093.51 843.66 C 1092.53 847.83 1087.54 848.42 1083.98 848.27 C 1080.70 848.37 1076.27 847.43 1075.61 843.62 C 1074.85 838.11 1075.40 832.52 1075.65 827.00 C 1057.82 827.10 1039.99 826.96 1022.16 827.07 C 1022.12 832.65 1022.76 838.29 1021.85 843.83 C 1021.09 847.86 1016.32 848.37 1012.98 848.26 C 1009.67 848.38 1005.21 847.52 1004.44 843.69 C 1003.46 837.83 1004.12 831.85 1004.05 825.95 Z" />
<path fill="#6f3996" opacity="1.00" d=" M 1107.79 825.95 C 1136.27 826.01 1164.76 825.59 1193.23 826.18 C 1187.92 827.53 1182.41 826.99 1177.00 827.04 C 1159.99 827.06 1142.98 826.98 1125.97 827.06 C 1126.01 829.59 1126.07 832.13 1126.15 834.68 C 1145.75 834.46 1165.36 834.67 1184.97 834.55 C 1188.08 834.67 1191.38 834.41 1194.29 835.73 C 1197.70 837.46 1198.11 842.34 1196.40 845.41 C 1194.36 848.48 1190.20 848.05 1187.00 848.27 C 1163.66 848.26 1140.32 848.31 1116.99 848.25 C 1113.90 848.11 1109.60 848.15 1108.36 844.64 C 1106.95 838.53 1107.88 832.17 1107.79 825.95 Z" />
<path fill="#6f3996" opacity="1.00" d=" M 1211.15 826.05 L 1211.93 826.02 C 1240.33 825.88 1268.75 825.70 1297.16 826.14 C 1291.88 827.60 1286.38 826.94 1281.00 827.04 C 1263.74 827.08 1246.49 826.95 1229.24 827.09 C 1229.29 832.68 1229.88 838.33 1229.06 843.88 C 1228.17 847.89 1223.35 848.38 1219.98 848.26 C 1216.71 848.37 1212.26 847.42 1211.62 843.61 C 1210.85 837.79 1211.62 831.89 1211.15 826.05 Z" />
</g>
</svg>
