<?xml version="1.0" encoding="utf-8"?>
<!-- Generator: Adobe Illustrator 23.0.2, SVG Export Plug-In . SVG Version: 6.00 Build 0)  -->
<svg version="1.1" id="Слой_1" xmlns="http://www.w3.org/2000/svg" xmlns:xlink="http://www.w3.org/1999/xlink" x="0px" y="0px"
	 viewBox="0 0 321.7 227.49" style="enable-background:new 0 0 321.7 227.49;" xml:space="preserve">
<style type="text/css">
	.st0{fill:none;stroke:#000000;stroke-width:12;stroke-miterlimit:10;}
	.st1{fill:none;stroke:#000000;stroke-width:7;stroke-miterlimit:10;}
	.st2{font-family:'DSVanish-Medium';}
	.st3{font-size:74.6631px;}
	.st4{clip-path:url(#SVGID_2_);fill:#ED1E24;}
	.st5{clip-path:url(#SVGID_2_);fill:#FEC010;}
	.st6{clip-path:url(#SVGID_2_);fill:#F7EC13;}
	.st7{clip-path:url(#SVGID_2_);fill:#109A48;}
	.st8{clip-path:url(#SVGID_2_);fill:#2BADE4;}
	.st9{clip-path:url(#SVGID_2_);fill:#1871B9;}
	.st10{clip-path:url(#SVGID_2_);fill:#6F3996;}
</style>
<rect x="6.03" y="6.06" class="st0" width="309.95" height="215.23"/>
<rect x="20.5" y="122.49" class="st1" width="281.01" height="81.14"/>
<g>
	<defs>
		<rect x="23.59" y="136.58" width="274.84" height="52.96"/>
		<text id="SVGID_1_" transform="matrix(1.6696 0 0 1 23.587 188.6926)" class="st2 st3">ДЕЗІГНЕР</text>
	</defs>
	<clipPath id="SVGID_2_">
		<use xlink:href="#SVGID_1_"  style="overflow:visible;"/>
	</clipPath>
	<rect x="27.05" y="136.58" class="st4" width="651.97" height="7.52"/>
	<rect x="27.05" y="144.1" class="st5" width="651.97" height="7.52"/>
	<rect x="27.05" y="151.62" class="st6" width="651.97" height="7.52"/>
	<rect x="27.05" y="159.14" class="st7" width="651.97" height="7.52"/>
	<rect x="27.05" y="166.67" class="st8" width="651.97" height="7.52"/>
	<rect x="27.05" y="174.19" class="st9" width="651.97" height="7.52"/>
	<rect x="27.05" y="181.71" class="st10" width="651.97" height="7.52"/>
</g>
<g>
	<polygon points="111.54,21.61 111.54,30.91 102.51,30.91 102.51,104.86 111.54,104.86 111.54,114.15 82.63,114.15 82.63,104.86 
		91.67,104.86 91.67,30.91 82.63,30.91 82.63,21.61 	"/>
	<path d="M239.38,87.72c-0.06,0.16-0.33,0.6-0.82,1.31l-3.53,4.84c-10.28,14.27-17.88,21.41-22.8,21.41c-2.57,0-4.68-0.96-6.31-2.87
		c-1.64-1.91-2.46-4.37-2.46-7.37c0-3.06,1.04-6.36,3.11-9.91c0.38-0.66,2.38-3.58,5.98-8.76c4.59-6.55,6.88-10.84,6.88-12.86
		c0-2.24-1.12-3.36-3.36-3.36c-7.21,0-19.58,14.8-37.1,44.39c-1.09-0.22-2.59-0.33-4.5-0.33c-2.24,0-4.15,0.11-5.73,0.33
		l11.63-18.43c7.59-12.12,11.39-19.55,11.39-22.28c0-2.46-1.01-3.69-3.03-3.69c-3,0-7.92,4.31-14.74,12.94
		c-6.83,8.63-13.6,19.11-20.31,31.45c-1.26-0.22-2.87-0.33-4.83-0.33c-2.13,0-3.99,0.11-5.57,0.33l11.71-18.43
		c8.08-12.67,12.12-20.5,12.12-23.51c0-1.64-0.63-2.46-1.89-2.46c-2.68,0-8.24,5.86-16.66,17.57c-0.55,0.76-0.99,1.15-1.31,1.15
		c-0.22-0.05-0.33-0.22-0.33-0.49c0-0.49,2.52-3.9,7.55-10.22c4.92-6.16,8.72-9.24,11.4-9.24c1.75,0,3.25,0.83,4.51,2.5
		c1.26,1.67,1.89,3.64,1.89,5.94c0,3.17-1.61,7.56-4.83,13.19c9.83-14.42,17.15-21.62,21.95-21.62c2.29,0,4.18,0.93,5.65,2.78
		c1.47,1.86,2.21,4.18,2.21,6.96c0,3.11-1.45,7.07-4.34,11.88c10.37-14.42,18.15-21.62,23.34-21.62c2.35,0,4.33,1.01,5.94,3.03
		c1.61,2.02,2.42,4.48,2.42,7.37c0,3.39-1.34,7.34-4.01,11.88c-0.06,0.06-2.4,3.55-7.04,10.48c-2.68,3.93-4.01,6.94-4.01,9.01
		c0,2.24,1.12,3.36,3.36,3.36c4.26,0,11.32-6.89,21.16-20.67l2.54-3.53l1.48-1.81c0.27-0.55,0.55-0.82,0.82-0.82
		C239.21,87.23,239.38,87.39,239.38,87.72z"/>
	<path d="M135.64,75.73c-2.83,5.26-8.13,12.02-11.46,14.91l-6.9,0.38c2.59-3.69,5.92-10.15,7.27-14.66L135.64,75.73z"/>
</g>
</svg>
